<svg xmlns="http://www.w3.org/2000/svg" width="33.333" height="33.333" viewBox="0 0 33.333 33.333"><defs><style>.a{fill:#3faa4d;}</style></defs><g transform="translate(7.915 4.188)"><path class="a" d="M146.033,64.7a1.256,1.256,0,0,0-1.776,0L129.186,79.726l-5.438-5.906a1.256,1.256,0,1,0-1.848,1.7l6.323,6.867a1.255,1.255,0,0,0,.9.4h.027a1.258,1.258,0,0,0,.887-.366l16-15.955A1.256,1.256,0,0,0,146.033,64.7Z" transform="translate(-121.568 -64.327)"/></g><path class="a" d="M32.077,15.41a1.256,1.256,0,0,0-1.256,1.256A14.154,14.154,0,1,1,16.667,2.513a1.256,1.256,0,1,0,0-2.513A16.667,16.667,0,1,0,33.333,16.667,1.256,1.256,0,0,0,32.077,15.41Z"/></svg>